<svg xmlns="http://www.w3.org/2000/svg" width="1654" height="1169" viewBox="0 0 1654 1169">
<rect width="100%" height="100%" fill="#ffffff"/>
<text x="60" y="72" font-size="28" fill="#5A5A5A" font-family="PingFang SC, Songti SC">U01 主用例图</text>
<ellipse cx="150.0" cy="280.0" rx="60.0" ry="30.0" fill="#F3E7DA" stroke="#5A5A5A" stroke-width="2"/>
<text x="150.0" y="286" text-anchor="middle" font-size="20" fill="#5A5A5A" font-family="PingFang SC, Songti SC">顾客</text>
<ellipse cx="150.0" cy="500.0" rx="60.0" ry="30.0" fill="#F3E7DA" stroke="#5A5A5A" stroke-width="2"/>
<text x="150.0" y="506" text-anchor="middle" font-size="20" fill="#5A5A5A" font-family="PingFang SC, Songti SC">店员</text>
<ellipse cx="160.0" cy="720.0" rx="70.0" ry="30.0" fill="#F3E7DA" stroke="#5A5A5A" stroke-width="2"/>
<text x="160.0" y="726" text-anchor="middle" font-size="20" fill="#5A5A5A" font-family="PingFang SC, Songti SC">运营总监</text>
<rect x="420" y="170" width="170" height="72" rx="18" ry="18" fill="#F3E7DA" stroke="#5A5A5A" stroke-width="2"/>
<text x="505.0" y="206" text-anchor="middle" font-size="20" fill="#5A5A5A" font-family="PingFang SC, Songti SC">注册会员</text>
<rect x="420" y="270" width="170" height="72" rx="18" ry="18" fill="#F3E7DA" stroke="#5A5A5A" stroke-width="2"/>
<text x="505.0" y="306" text-anchor="middle" font-size="20" fill="#5A5A5A" font-family="PingFang SC, Songti SC">浏览门店</text>
<text x="505.0" y="336" text-anchor="middle" font-size="20" fill="#5A5A5A" font-family="PingFang SC, Songti SC">与时段</text>
<rect x="420" y="370" width="170" height="72" rx="18" ry="18" fill="#F3E7DA" stroke="#5A5A5A" stroke-width="2"/>
<text x="505.0" y="406" text-anchor="middle" font-size="20" fill="#5A5A5A" font-family="PingFang SC, Songti SC">创建预约</text>
<rect x="690" y="270" width="170" height="72" rx="18" ry="18" fill="#F3E7DA" stroke="#5A5A5A" stroke-width="2"/>
<text x="775.0" y="306" text-anchor="middle" font-size="20" fill="#5A5A5A" font-family="PingFang SC, Songti SC">AI 推荐</text>
<text x="775.0" y="336" text-anchor="middle" font-size="20" fill="#5A5A5A" font-family="PingFang SC, Songti SC">桌位</text>
<rect x="690" y="170" width="170" height="72" rx="18" ry="18" fill="#F3E7DA" stroke="#5A5A5A" stroke-width="2"/>
<text x="775.0" y="206" text-anchor="middle" font-size="20" fill="#5A5A5A" font-family="PingFang SC, Songti SC">管理预约</text>
<text x="775.0" y="236" text-anchor="middle" font-size="20" fill="#5A5A5A" font-family="PingFang SC, Songti SC">历史</text>
<rect x="420" y="520" width="220" height="72" rx="18" ry="18" fill="#F3E7DA" stroke="#5A5A5A" stroke-width="2"/>
<text x="530.0" y="556" text-anchor="middle" font-size="20" fill="#5A5A5A" font-family="PingFang SC, Songti SC">店员排台与</text>
<text x="530.0" y="586" text-anchor="middle" font-size="20" fill="#5A5A5A" font-family="PingFang SC, Songti SC">异常处理</text>
<rect x="690" y="520" width="170" height="72" rx="18" ry="18" fill="#F3E7DA" stroke="#5A5A5A" stroke-width="2"/>
<text x="775.0" y="556" text-anchor="middle" font-size="20" fill="#5A5A5A" font-family="PingFang SC, Songti SC">猫咪健康</text>
<text x="775.0" y="586" text-anchor="middle" font-size="20" fill="#5A5A5A" font-family="PingFang SC, Songti SC">打卡</text>
<rect x="420" y="720" width="220" height="72" rx="18" ry="18" fill="#F3E7DA" stroke="#5A5A5A" stroke-width="2"/>
<text x="530.0" y="756" text-anchor="middle" font-size="20" fill="#5A5A5A" font-family="PingFang SC, Songti SC">运营分析</text>
<text x="530.0" y="786" text-anchor="middle" font-size="20" fill="#5A5A5A" font-family="PingFang SC, Songti SC">与配置</text>
<rect x="690" y="370" width="170" height="72" rx="18" ry="18" fill="#F3E7DA" stroke="#5A5A5A" stroke-width="2"/>
<text x="775.0" y="406" text-anchor="middle" font-size="20" fill="#5A5A5A" font-family="PingFang SC, Songti SC">发送预约</text>
<text x="775.0" y="436" text-anchor="middle" font-size="20" fill="#5A5A5A" font-family="PingFang SC, Songti SC">通知</text>
<line x1="210" y1="280" x2="420" y2="205" stroke="#5A5A5A" stroke-width="3"/>
<line x1="210" y1="280" x2="420" y2="305" stroke="#5A5A5A" stroke-width="3"/>
<line x1="210" y1="280" x2="420" y2="405" stroke="#5A5A5A" stroke-width="3"/>
<line x1="210" y1="280" x2="690" y2="205" stroke="#5A5A5A" stroke-width="3"/>
<line x1="210" y1="500" x2="420" y2="555" stroke="#5A5A5A" stroke-width="3"/>
<line x1="210" y1="500" x2="690" y2="555" stroke="#5A5A5A" stroke-width="3"/>
<line x1="230" y1="720" x2="420" y2="755" stroke="#5A5A5A" stroke-width="3"/>
<text x="646.0" y="351.0" font-size="16" fill="#D86F45" font-family="PingFang SC, Songti SC"><<include>></text>
<line x1="590" y1="405" x2="690" y2="305" stroke="#5A5A5A" stroke-width="3"/>
<text x="646.0" y="401.0" font-size="16" fill="#D86F45" font-family="PingFang SC, Songti SC"><<include>></text>
<line x1="590" y1="405" x2="690" y2="405" stroke="#5A5A5A" stroke-width="3"/>
<text x="671.0" y="476.0" font-size="16" fill="#D86F45" font-family="PingFang SC, Songti SC"><<extend>></text>
<line x1="640" y1="555" x2="690" y2="405" stroke="#5A5A5A" stroke-width="3"/>
</svg>