<svg xmlns="http://www.w3.org/2000/svg" width="1654" height="1169" viewBox="0 0 1654 1169">
<rect width="100%" height="100%" fill="#ffffff"/>
<text x="60" y="72" font-size="28" fill="#5A5A5A" font-family="PingFang SC, Songti SC">U02 会员子用例图</text>
<ellipse cx="140.0" cy="350.0" rx="60.0" ry="30.0" fill="#F3E7DA" stroke="#5A5A5A" stroke-width="2"/>
<text x="140.0" y="356" text-anchor="middle" font-size="20" fill="#5A5A5A" font-family="PingFang SC, Songti SC">顾客</text>
<rect x="350" y="180" width="170" height="72" rx="18" ry="18" fill="#F3E7DA" stroke="#5A5A5A" stroke-width="2"/>
<text x="435.0" y="216" text-anchor="middle" font-size="20" fill="#5A5A5A" font-family="PingFang SC, Songti SC">注册会员</text>
<rect x="350" y="290" width="170" height="72" rx="18" ry="18" fill="#F3E7DA" stroke="#5A5A5A" stroke-width="2"/>
<text x="435.0" y="326" text-anchor="middle" font-size="20" fill="#5A5A5A" font-family="PingFang SC, Songti SC">维护资料</text>
<rect x="350" y="400" width="170" height="72" rx="18" ry="18" fill="#F3E7DA" stroke="#5A5A5A" stroke-width="2"/>
<text x="435.0" y="436" text-anchor="middle" font-size="20" fill="#5A5A5A" font-family="PingFang SC, Songti SC">查看积分</text>
<text x="435.0" y="466" text-anchor="middle" font-size="20" fill="#5A5A5A" font-family="PingFang SC, Songti SC">与权益</text>
<rect x="640" y="290" width="170" height="72" rx="18" ry="18" fill="#F3E7DA" stroke="#5A5A5A" stroke-width="2"/>
<text x="725.0" y="326" text-anchor="middle" font-size="20" fill="#5A5A5A" font-family="PingFang SC, Songti SC">使用优惠券</text>
<rect x="640" y="400" width="170" height="72" rx="18" ry="18" fill="#F3E7DA" stroke="#5A5A5A" stroke-width="2"/>
<text x="725.0" y="436" text-anchor="middle" font-size="20" fill="#5A5A5A" font-family="PingFang SC, Songti SC">累计积分</text>
<line x1="200" y1="350" x2="350" y2="216" stroke="#5A5A5A" stroke-width="3"/>
<line x1="200" y1="350" x2="350" y2="326" stroke="#5A5A5A" stroke-width="3"/>
<line x1="200" y1="350" x2="350" y2="436" stroke="#5A5A5A" stroke-width="3"/>
<text x="586.0" y="377.0" font-size="16" fill="#D86F45" font-family="PingFang SC, Songti SC"><<include>></text>
<line x1="520" y1="436" x2="640" y2="326" stroke="#5A5A5A" stroke-width="3"/>
<text x="586.0" y="432.0" font-size="16" fill="#D86F45" font-family="PingFang SC, Songti SC"><<include>></text>
<line x1="520" y1="436" x2="640" y2="436" stroke="#5A5A5A" stroke-width="3"/>
</svg>