<svg xmlns="http://www.w3.org/2000/svg" width="1654" height="1169" viewBox="0 0 1654 1169">
<rect width="100%" height="100%" fill="#ffffff"/>
<text x="60" y="72" font-size="28" fill="#5A5A5A" font-family="PingFang SC, Songti SC">U03 预约子用例图</text>
<ellipse cx="140.0" cy="350.0" rx="60.0" ry="30.0" fill="#F3E7DA" stroke="#5A5A5A" stroke-width="2"/>
<text x="140.0" y="356" text-anchor="middle" font-size="20" fill="#5A5A5A" font-family="PingFang SC, Songti SC">顾客</text>
<rect x="350" y="160" width="190" height="72" rx="18" ry="18" fill="#F3E7DA" stroke="#5A5A5A" stroke-width="2"/>
<text x="445.0" y="196" text-anchor="middle" font-size="20" fill="#5A5A5A" font-family="PingFang SC, Songti SC">浏览门店</text>
<text x="445.0" y="226" text-anchor="middle" font-size="20" fill="#5A5A5A" font-family="PingFang SC, Songti SC">与时段</text>
<rect x="350" y="270" width="190" height="72" rx="18" ry="18" fill="#F3E7DA" stroke="#5A5A5A" stroke-width="2"/>
<text x="445.0" y="306" text-anchor="middle" font-size="20" fill="#5A5A5A" font-family="PingFang SC, Songti SC">创建预约</text>
<rect x="350" y="380" width="190" height="72" rx="18" ry="18" fill="#F3E7DA" stroke="#5A5A5A" stroke-width="2"/>
<text x="445.0" y="416" text-anchor="middle" font-size="20" fill="#5A5A5A" font-family="PingFang SC, Songti SC">加入等位</text>
<rect x="660" y="220" width="190" height="72" rx="18" ry="18" fill="#F3E7DA" stroke="#5A5A5A" stroke-width="2"/>
<text x="755.0" y="256" text-anchor="middle" font-size="20" fill="#5A5A5A" font-family="PingFang SC, Songti SC">AI 推荐</text>
<text x="755.0" y="286" text-anchor="middle" font-size="20" fill="#5A5A5A" font-family="PingFang SC, Songti SC">桌位</text>
<rect x="660" y="330" width="190" height="72" rx="18" ry="18" fill="#F3E7DA" stroke="#5A5A5A" stroke-width="2"/>
<text x="755.0" y="366" text-anchor="middle" font-size="20" fill="#5A5A5A" font-family="PingFang SC, Songti SC">发送预约</text>
<text x="755.0" y="396" text-anchor="middle" font-size="20" fill="#5A5A5A" font-family="PingFang SC, Songti SC">通知</text>
<rect x="660" y="440" width="190" height="72" rx="18" ry="18" fill="#F3E7DA" stroke="#5A5A5A" stroke-width="2"/>
<text x="755.0" y="476" text-anchor="middle" font-size="20" fill="#5A5A5A" font-family="PingFang SC, Songti SC">管理预约</text>
<text x="755.0" y="506" text-anchor="middle" font-size="20" fill="#5A5A5A" font-family="PingFang SC, Songti SC">历史</text>
<line x1="200" y1="350" x2="350" y2="196" stroke="#5A5A5A" stroke-width="3"/>
<line x1="200" y1="350" x2="350" y2="306" stroke="#5A5A5A" stroke-width="3"/>
<line x1="200" y1="350" x2="350" y2="416" stroke="#5A5A5A" stroke-width="3"/>
<line x1="200" y1="350" x2="660" y2="476" stroke="#5A5A5A" stroke-width="3"/>
<text x="606.0" y="277.0" font-size="16" fill="#D86F45" font-family="PingFang SC, Songti SC"><<include>></text>
<line x1="540" y1="306" x2="660" y2="256" stroke="#5A5A5A" stroke-width="3"/>
<text x="606.0" y="332.0" font-size="16" fill="#D86F45" font-family="PingFang SC, Songti SC"><<include>></text>
<line x1="540" y1="306" x2="660" y2="366" stroke="#5A5A5A" stroke-width="3"/>
</svg>