<svg xmlns="http://www.w3.org/2000/svg" width="1654" height="1169" viewBox="0 0 1654 1169">
<rect width="100%" height="100%" fill="#ffffff"/>
<text x="60" y="72" font-size="28" fill="#5A5A5A" font-family="PingFang SC, Songti SC">T01 订单状态机</text>
<ellipse cx="220.0" cy="235.0" rx="70.0" ry="35.0" fill="#F3E7DA" stroke="#5A5A5A" stroke-width="2"/>
<text x="220.0" y="236" text-anchor="middle" font-size="20" fill="#5A5A5A" font-family="PingFang SC, Songti SC">待确认</text>
<ellipse cx="480.0" cy="235.0" rx="70.0" ry="35.0" fill="#F3E7DA" stroke="#5A5A5A" stroke-width="2"/>
<text x="480.0" y="236" text-anchor="middle" font-size="20" fill="#5A5A5A" font-family="PingFang SC, Songti SC">已确认</text>
<ellipse cx="740.0" cy="235.0" rx="70.0" ry="35.0" fill="#F3E7DA" stroke="#5A5A5A" stroke-width="2"/>
<text x="740.0" y="236" text-anchor="middle" font-size="20" fill="#5A5A5A" font-family="PingFang SC, Songti SC">已到店</text>
<ellipse cx="1000.0" cy="235.0" rx="70.0" ry="35.0" fill="#F3E7DA" stroke="#5A5A5A" stroke-width="2"/>
<text x="1000.0" y="236" text-anchor="middle" font-size="20" fill="#5A5A5A" font-family="PingFang SC, Songti SC">已入座</text>
<ellipse cx="1260.0" cy="235.0" rx="70.0" ry="35.0" fill="#D6F0E0" stroke="#5A5A5A" stroke-width="2"/>
<text x="1260.0" y="236" text-anchor="middle" font-size="20" fill="#5A5A5A" font-family="PingFang SC, Songti SC">已离店</text>
<ellipse cx="610.0" cy="455.0" rx="70.0" ry="35.0" fill="#F9E2D2" stroke="#5A5A5A" stroke-width="2"/>
<text x="610.0" y="456" text-anchor="middle" font-size="20" fill="#5A5A5A" font-family="PingFang SC, Songti SC">已取消</text>
<ellipse cx="930.0" cy="455.0" rx="70.0" ry="35.0" fill="#F9E2D2" stroke="#5A5A5A" stroke-width="2"/>
<text x="930.0" y="456" text-anchor="middle" font-size="20" fill="#5A5A5A" font-family="PingFang SC, Songti SC">已爽约</text>
<text x="356.0" y="231.0" font-size="16" fill="#D86F45" font-family="PingFang SC, Songti SC">支付/确认</text>
<line x1="290" y1="235" x2="410" y2="235" stroke="#5A5A5A" stroke-width="3"/>
<text x="616.0" y="231.0" font-size="16" fill="#D86F45" font-family="PingFang SC, Songti SC">到店</text>
<line x1="550" y1="235" x2="670" y2="235" stroke="#5A5A5A" stroke-width="3"/>
<text x="876.0" y="231.0" font-size="16" fill="#D86F45" font-family="PingFang SC, Songti SC">入座</text>
<line x1="810" y1="235" x2="930" y2="235" stroke="#5A5A5A" stroke-width="3"/>
<text x="1136.0" y="231.0" font-size="16" fill="#D86F45" font-family="PingFang SC, Songti SC">离店</text>
<line x1="1070" y1="235" x2="1190" y2="235" stroke="#5A5A5A" stroke-width="3"/>
<text x="421.0" y="341.0" font-size="16" fill="#D86F45" font-family="PingFang SC, Songti SC">用户取消</text>
<line x1="220" y1="270" x2="610" y2="420" stroke="#5A5A5A" stroke-width="3"/>
<text x="551.0" y="341.0" font-size="16" fill="#D86F45" font-family="PingFang SC, Songti SC">规则内取消</text>
<line x1="480" y1="270" x2="610" y2="420" stroke="#5A5A5A" stroke-width="3"/>
<text x="711.0" y="341.0" font-size="16" fill="#D86F45" font-family="PingFang SC, Songti SC">超时未到店</text>
<line x1="480" y1="270" x2="930" y2="420" stroke="#5A5A5A" stroke-width="3"/>
</svg>