<svg xmlns="http://www.w3.org/2000/svg" width="1654" height="1169" viewBox="0 0 1654 1169">
<rect width="100%" height="100%" fill="#ffffff"/>
<text x="60" y="72" font-size="28" fill="#5A5A5A" font-family="PingFang SC, Songti SC">S02 跨服务调用顺序图</text>
<rect x="110" y="100" width="190" height="60" rx="18" ry="18" fill="#F3E7DA" stroke="#5A5A5A" stroke-width="2"/>
<text x="205.0" y="136" text-anchor="middle" font-size="20" fill="#5A5A5A" font-family="PingFang SC, Songti SC">店员</text>
<rect x="340" y="100" width="190" height="60" rx="18" ry="18" fill="#F3E7DA" stroke="#5A5A5A" stroke-width="2"/>
<text x="435.0" y="136" text-anchor="middle" font-size="20" fill="#5A5A5A" font-family="PingFang SC, Songti SC">store-ops-service</text>
<rect x="620" y="100" width="190" height="60" rx="18" ry="18" fill="#F3E7DA" stroke="#5A5A5A" stroke-width="2"/>
<text x="715.0" y="136" text-anchor="middle" font-size="20" fill="#5A5A5A" font-family="PingFang SC, Songti SC">reservation-service</text>
<rect x="920" y="100" width="190" height="60" rx="18" ry="18" fill="#F3E7DA" stroke="#5A5A5A" stroke-width="2"/>
<text x="1015.0" y="136" text-anchor="middle" font-size="20" fill="#5A5A5A" font-family="PingFang SC, Songti SC">cat-health-service</text>
<rect x="1220" y="100" width="190" height="60" rx="18" ry="18" fill="#F3E7DA" stroke="#5A5A5A" stroke-width="2"/>
<text x="1315.0" y="136" text-anchor="middle" font-size="20" fill="#5A5A5A" font-family="PingFang SC, Songti SC">ops-insight-service</text>
<text x="276.0" y="216.0" font-size="16" fill="#D86F45" font-family="PingFang SC, Songti SC">1. 标记顾客到店</text>
<line x1="200" y1="220" x2="340" y2="220" stroke="#5A5A5A" stroke-width="3"/>
<text x="581.0" y="276.0" font-size="16" fill="#D86F45" font-family="PingFang SC, Songti SC">2. 更新预约状态</text>
<line x1="530" y1="280" x2="620" y2="280" stroke="#5A5A5A" stroke-width="3"/>
<text x="871.0" y="336.0" font-size="16" fill="#D86F45" font-family="PingFang SC, Songti SC">3. 查询猫咪互动限制</text>
<line x1="810" y1="340" x2="920" y2="340" stroke="#5A5A5A" stroke-width="3"/>
<text x="1021.0" y="396.0" font-size="16" fill="#D86F45" font-family="PingFang SC, Songti SC">4. 返回限制结果</text>
<line x1="1110" y1="400" x2="920" y2="400" stroke="#5A5A5A" stroke-width="3"/>
<text x="926.0" y="456.0" font-size="16" fill="#D86F45" font-family="PingFang SC, Songti SC">5. 上报到店事件</text>
<line x1="620" y1="460" x2="1220" y2="460" stroke="#5A5A5A" stroke-width="3"/>
<text x="786.0" y="516.0" font-size="16" fill="#D86F45" font-family="PingFang SC, Songti SC">6. 返回统计完成</text>
<line x1="1220" y1="520" x2="340" y2="520" stroke="#5A5A5A" stroke-width="3"/>
<text x="276.0" y="576.0" font-size="16" fill="#D86F45" font-family="PingFang SC, Songti SC">7. 界面更新桌位与提示</text>
<line x1="340" y1="580" x2="200" y2="580" stroke="#5A5A5A" stroke-width="3"/>
</svg>