<svg xmlns="http://www.w3.org/2000/svg" width="1654" height="1169" viewBox="0 0 1654 1169">
<rect width="100%" height="100%" fill="#ffffff"/>
<text x="60" y="72" font-size="28" fill="#5A5A5A" font-family="PingFang SC, Songti SC">S01 下单顺序图</text>
<rect x="120" y="100" width="180" height="60" rx="18" ry="18" fill="#F3E7DA" stroke="#5A5A5A" stroke-width="2"/>
<text x="210.0" y="136" text-anchor="middle" font-size="20" fill="#5A5A5A" font-family="PingFang SC, Songti SC">顾客</text>
<rect x="360" y="100" width="180" height="60" rx="18" ry="18" fill="#F3E7DA" stroke="#5A5A5A" stroke-width="2"/>
<text x="450.0" y="136" text-anchor="middle" font-size="20" fill="#5A5A5A" font-family="PingFang SC, Songti SC">前端</text>
<rect x="620" y="100" width="180" height="60" rx="18" ry="18" fill="#F3E7DA" stroke="#5A5A5A" stroke-width="2"/>
<text x="710.0" y="136" text-anchor="middle" font-size="20" fill="#5A5A5A" font-family="PingFang SC, Songti SC">reservation-service</text>
<rect x="900" y="100" width="180" height="60" rx="18" ry="18" fill="#F3E7DA" stroke="#5A5A5A" stroke-width="2"/>
<text x="990.0" y="136" text-anchor="middle" font-size="20" fill="#5A5A5A" font-family="PingFang SC, Songti SC">member-service</text>
<rect x="1210" y="100" width="180" height="60" rx="18" ry="18" fill="#F3E7DA" stroke="#5A5A5A" stroke-width="2"/>
<text x="1300.0" y="136" text-anchor="middle" font-size="20" fill="#5A5A5A" font-family="PingFang SC, Songti SC">notification-service</text>
<text x="291.0" y="216.0" font-size="16" fill="#D86F45" font-family="PingFang SC, Songti SC">1. 选择门店与时段</text>
<line x1="210" y1="220" x2="360" y2="220" stroke="#5A5A5A" stroke-width="3"/>
<text x="586.0" y="276.0" font-size="16" fill="#D86F45" font-family="PingFang SC, Songti SC">2. createReservation()</text>
<line x1="540" y1="280" x2="620" y2="280" stroke="#5A5A5A" stroke-width="3"/>
<text x="856.0" y="336.0" font-size="16" fill="#D86F45" font-family="PingFang SC, Songti SC">3. 校验会员权益</text>
<line x1="800" y1="340" x2="900" y2="340" stroke="#5A5A5A" stroke-width="3"/>
<text x="856.0" y="386.0" font-size="16" fill="#D86F45" font-family="PingFang SC, Songti SC">4. 权益结果</text>
<line x1="900" y1="390" x2="800" y2="390" stroke="#5A5A5A" stroke-width="3"/>
<text x="921.0" y="446.0" font-size="16" fill="#D86F45" font-family="PingFang SC, Songti SC">5. 发送确认通知</text>
<line x1="620" y1="450" x2="1210" y2="450" stroke="#5A5A5A" stroke-width="3"/>
<text x="921.0" y="496.0" font-size="16" fill="#D86F45" font-family="PingFang SC, Songti SC">6. 通知入队结果</text>
<line x1="1210" y1="500" x2="620" y2="500" stroke="#5A5A5A" stroke-width="3"/>
<text x="496.0" y="556.0" font-size="16" fill="#D86F45" font-family="PingFang SC, Songti SC">7. 返回预约成功</text>
<line x1="620" y1="560" x2="360" y2="560" stroke="#5A5A5A" stroke-width="3"/>
<text x="291.0" y="616.0" font-size="16" fill="#D86F45" font-family="PingFang SC, Songti SC">8. 展示预约详情</text>
<line x1="360" y1="620" x2="210" y2="620" stroke="#5A5A5A" stroke-width="3"/>
</svg>