<svg xmlns="http://www.w3.org/2000/svg" width="1654" height="1169" viewBox="0 0 1654 1169">
<rect width="100%" height="100%" fill="#ffffff"/>
<text x="60" y="72" font-size="28" fill="#5A5A5A" font-family="PingFang SC, Songti SC">A02 猫咪健康打卡活动图</text>
<ellipse cx="225.0" cy="145.0" rx="45.0" ry="25.0" fill="#D6F0E0" stroke="#5A5A5A" stroke-width="2"/>
<text x="225.0" y="156" text-anchor="middle" font-size="20" fill="#5A5A5A" font-family="PingFang SC, Songti SC">开始</text>
<rect x="360" y="120" width="180" height="72" rx="18" ry="18" fill="#F3E7DA" stroke="#5A5A5A" stroke-width="2"/>
<text x="450.0" y="156" text-anchor="middle" font-size="20" fill="#5A5A5A" font-family="PingFang SC, Songti SC">选择猫咪</text>
<text x="450.0" y="186" text-anchor="middle" font-size="20" fill="#5A5A5A" font-family="PingFang SC, Songti SC">档案</text>
<rect x="620" y="120" width="220" height="72" rx="18" ry="18" fill="#F3E7DA" stroke="#5A5A5A" stroke-width="2"/>
<text x="730.0" y="156" text-anchor="middle" font-size="20" fill="#5A5A5A" font-family="PingFang SC, Songti SC">录入体温/</text>
<text x="730.0" y="186" text-anchor="middle" font-size="20" fill="#5A5A5A" font-family="PingFang SC, Songti SC">食量/情绪</text>
<polygon points="990.0,118 1050,158.0 990.0,198 930,158.0" fill="#F9E2D2" stroke="#5A5A5A" stroke-width="2"/>
<text x="990.0" y="154" text-anchor="middle" font-size="20" fill="#5A5A5A" font-family="PingFang SC, Songti SC">指标</text>
<text x="990.0" y="184" text-anchor="middle" font-size="20" fill="#5A5A5A" font-family="PingFang SC, Songti SC">异常？</text>
<rect x="1120" y="80" width="170" height="72" rx="18" ry="18" fill="#F3E7DA" stroke="#5A5A5A" stroke-width="2"/>
<text x="1205.0" y="116" text-anchor="middle" font-size="20" fill="#5A5A5A" font-family="PingFang SC, Songti SC">保存健康</text>
<text x="1205.0" y="146" text-anchor="middle" font-size="20" fill="#5A5A5A" font-family="PingFang SC, Songti SC">打卡</text>
<rect x="1120" y="220" width="210" height="72" rx="18" ry="18" fill="#F3E7DA" stroke="#5A5A5A" stroke-width="2"/>
<text x="1225.0" y="256" text-anchor="middle" font-size="20" fill="#5A5A5A" font-family="PingFang SC, Songti SC">标记互动</text>
<text x="1225.0" y="286" text-anchor="middle" font-size="20" fill="#5A5A5A" font-family="PingFang SC, Songti SC">限制并提醒</text>
<ellipse cx="1445.0" cy="175.0" rx="45.0" ry="25.0" fill="#D6F0E0" stroke="#5A5A5A" stroke-width="2"/>
<text x="1445.0" y="186" text-anchor="middle" font-size="20" fill="#5A5A5A" font-family="PingFang SC, Songti SC">结束</text>
<line x1="270" y1="145" x2="360" y2="156" stroke="#5A5A5A" stroke-width="3"/>
<line x1="540" y1="156" x2="620" y2="156" stroke="#5A5A5A" stroke-width="3"/>
<line x1="840" y1="156" x2="930" y2="156" stroke="#5A5A5A" stroke-width="3"/>
<text x="1091.0" y="126.5" font-size="16" fill="#D86F45" font-family="PingFang SC, Songti SC">否</text>
<line x1="1050" y1="145" x2="1120" y2="116" stroke="#5A5A5A" stroke-width="3"/>
<text x="1091.0" y="211.5" font-size="16" fill="#D86F45" font-family="PingFang SC, Songti SC">是</text>
<line x1="1050" y1="175" x2="1120" y2="256" stroke="#5A5A5A" stroke-width="3"/>
<line x1="1290" y1="116" x2="1400" y2="176" stroke="#5A5A5A" stroke-width="3"/>
<line x1="1330" y1="256" x2="1400" y2="176" stroke="#5A5A5A" stroke-width="3"/>
</svg>